<?xml version="1.0" encoding="iso-8859-1"?>
<!-- Generator: Adobe Illustrator 19.0.0, SVG Export Plug-In . SVG Version: 6.00 Build 0)  -->
<svg version="1.1" id="Capa_1" xmlns="http://www.w3.org/2000/svg" xmlns:xlink="http://www.w3.org/1999/xlink" x="0px" y="0px"
	 viewBox="0 0 512.002 512.002" style="enable-background:new 0 0 512.002 512.002;" xml:space="preserve">
<g>
	<g>
		<path d="M436.992,75.047C388.647,26.702,324.37,0.077,256,0.077c-59.431,0-117.011,20.702-162.734,58.391L42.019,7.221
			c-5.117-5.123-12.19-7.729-19.422-7.139C15.377,0.668,8.789,4.41,4.522,10.35c-6.923,9.637-5.492,23.557,3.33,32.378
			l50.577,50.577C20.732,139.038,0.039,196.574,0.039,256.04c0,68.37,26.625,132.647,74.97,180.992
			c48.345,48.345,112.622,74.97,180.992,74.97s132.647-26.625,180.992-74.97c48.345-48.345,74.97-112.622,74.97-180.992
			S485.337,123.392,436.992,75.047z M18.458,32.121c-3.625-3.624-4.395-9.343-1.754-13.02c1.718-2.391,4.241-3.836,7.105-4.068
			c2.83-0.233,5.597,0.788,7.6,2.792l99.892,99.892c17.916,17.916,41.49,29.379,68.59,33.501
			c-20.669,11.073-37.655,28.044-48.717,48.685c-4.126-27.089-15.587-50.652-33.497-68.562L18.458,32.121z M145.379,240.94
			c0.507,0.104,1.013,0.154,1.511,0.154c3.488,0,6.613-2.447,7.34-5.998c8.172-39.936,39.158-71.503,78.94-80.421
			c4.042-0.906,6.584-4.917,5.678-8.959s-4.92-6.585-8.959-5.678c-1.067,0.239-2.122,0.507-3.177,0.774
			c-3.155-1.084-6.387-1.941-9.649-2.528c-2.14-0.385-4.312-0.675-6.453-0.861c-27.509-2.394-51.266-12.875-68.703-30.313
			l-7.495-7.495c34.621-26.925,77.565-41.699,121.587-41.699c109.246,0,198.124,88.878,198.124,198.124
			s-88.878,198.124-198.124,198.124S57.876,365.285,57.876,256.039c0-44.059,14.766-86.953,41.7-121.587l7.494,7.494
			c17.437,17.437,27.919,41.194,30.312,68.703c0.186,2.142,0.476,4.313,0.861,6.453c0.587,3.262,1.438,6.513,2.524,9.667
			c-0.445,1.76-0.866,3.53-1.232,5.32C138.704,236.147,141.321,240.11,145.379,240.94z M426.385,426.425
			c-45.512,45.512-106.022,70.576-170.386,70.576s-124.874-25.064-170.386-70.576c-45.512-45.512-70.575-106.023-70.575-170.386
			c0-55.497,19.152-109.202,54.055-152.07l19.798,19.798c-29.709,37.513-46.015,84.251-46.015,132.271
			c0,117.517,95.607,213.124,213.124,213.124s213.124-95.607,213.124-213.124S373.516,42.916,256,42.916
			c-47.981,0-94.778,16.311-132.276,46.011l-19.798-19.798C146.785,34.233,200.534,15.078,256,15.078
			c64.363,0,124.874,25.064,170.386,70.576c45.512,45.512,70.576,106.022,70.576,170.386
			C496.962,320.404,471.897,380.913,426.385,426.425z"/>
	</g>
</g>
<g>
	<g>
		<path d="M263.739,164.543c-0.018,0-0.036,0-0.054,0c-28.003,0.197-54.14,12.885-71.709,34.81
			c-2.589,3.232-2.069,7.952,1.164,10.542c1.384,1.109,3.04,1.648,4.685,1.648c2.198,0,4.376-0.962,5.857-2.811
			c14.733-18.385,36.642-29.024,60.109-29.189c4.142-0.029,7.476-3.411,7.447-7.553
			C271.209,167.866,267.857,164.543,263.739,164.543z"/>
	</g>
</g>
<g>
	<g>
		<path d="M338.005,327.467c-10.27-8.854-20.702-15.63-30.79-22.185c-20.137-13.083-39.157-25.439-53.11-52.665
			c-1.889-3.686-6.407-5.142-10.095-3.253c-3.686,1.889-5.143,6.409-3.253,10.095c15.776,30.783,37.387,44.823,58.287,58.401
			c9.669,6.282,19.667,12.777,29.167,20.967c11.825,10.193,16.368,23.264,12.154,34.962c-3.405,9.452-11.977,15.929-21.33,16.116
			c-4.142,0.083-7.432,3.507-7.349,7.648c0.082,4.09,3.423,7.35,7.496,7.35c0.051,0,0.102,0,0.153-0.001
			c15.766-0.315,29.561-10.533,35.142-26.03C360.881,361.097,354.724,341.88,338.005,327.467z"/>
	</g>
</g>
<g>
	<g>
		<path d="M319.041,272.072c-14.107-9.331-25.6-17.84-34.438-35.083c-1.889-3.687-6.41-5.142-10.095-3.253
			c-3.686,1.889-5.143,6.409-3.253,10.095c10.48,20.448,24.094,30.553,39.511,40.751c1.274,0.843,2.71,1.246,4.131,1.246
			c2.433,0,4.819-1.182,6.262-3.363C323.444,279.01,322.496,274.357,319.041,272.072z"/>
	</g>
</g>
<g>
	<g>
		<path d="M288.545,334.021c-21.944-14.255-46.815-30.412-64.937-65.773c-3.03-5.911-3.756-12.695-2.045-19.104
			c1.069-4.002-1.309-8.113-5.311-9.181c-4.003-1.071-8.113,1.309-9.181,5.311c-2.672,10.005-1.539,20.595,3.188,29.816
			c19.945,38.92,46.598,56.234,70.114,71.511c1.262,0.82,2.678,1.211,4.079,1.211c2.454,0,4.859-1.204,6.296-3.415
			C293.005,340.923,292.019,336.277,288.545,334.021z"/>
	</g>
</g>
<g>
	<g>
		<path d="M360.381,301.508c-3.845-3.313-7.855-6.515-12.261-9.79c-3.326-2.471-8.023-1.778-10.494,1.545
			c-2.471,3.325-1.779,8.023,1.545,10.494c4.114,3.057,7.848,6.039,11.417,9.114c1.417,1.221,3.159,1.818,4.893,1.818
			c2.107,0,4.202-0.883,5.685-2.604C363.871,308.948,363.519,304.213,360.381,301.508z"/>
	</g>
</g>
<g>
	<g>
		<path d="M256,419.892c-30.914,0-61.018-8.65-87.059-25.015c-25.347-15.929-45.861-38.452-59.323-65.133
			c-4.495-8.908-4.837-20.115-0.895-29.247c2.625-6.08,8.381-14.107,20.896-17.82c3.971-1.178,6.235-5.353,5.057-9.324
			c-1.179-3.971-5.35-6.234-9.324-5.057c-14.101,4.184-24.897,13.508-30.401,26.255c-5.743,13.304-5.266,28.986,1.275,41.95
			c14.691,29.117,37.075,53.695,64.733,71.076c28.435,17.87,61.299,27.315,95.041,27.315c4.142,0,7.5-3.358,7.5-7.5
			C263.5,423.25,260.142,419.892,256,419.892z"/>
	</g>
</g>
<g>
	<g>
		<path d="M173.153,355.684c-14.067-11.709-25.725-26.563-33.714-42.957c-1.814-3.723-6.303-5.269-10.027-3.456
			c-3.724,1.814-5.271,6.304-3.457,10.028c8.913,18.288,21.915,34.857,37.602,47.914c1.402,1.167,3.103,1.736,4.794,1.736
			c2.15,0,4.285-0.92,5.768-2.702C176.769,363.063,176.337,358.334,173.153,355.684z"/>
	</g>
</g>
<g>
	<g>
		<path d="M215.52,379.176c-3.961-1.301-7.905-2.814-11.722-4.496c-3.791-1.673-8.218,0.048-9.888,3.838
			c-1.671,3.791,0.048,8.217,3.838,9.888c4.262,1.879,8.667,3.568,13.091,5.021c0.777,0.255,1.566,0.376,2.342,0.376
			c3.152,0,6.086-2.003,7.124-5.161C221.597,384.706,219.455,380.469,215.52,379.176z"/>
	</g>
</g>
<g>
	<g>
		<path d="M415.773,175.577c-12.863-25.495-31.926-47.832-55.127-64.597c-3.358-2.426-8.046-1.67-10.472,1.687
			c-2.426,3.357-1.671,8.045,1.686,10.471c21.264,15.366,38.734,35.835,50.521,59.196c1.319,2.615,3.96,4.123,6.702,4.123
			c1.136,0,2.289-0.259,3.373-0.806C416.154,183.785,417.64,179.275,415.773,175.577z"/>
	</g>
</g>
<g>
	<g>
		<path d="M329.985,93.16c-5.12-2.329-10.41-4.438-15.726-6.269c-3.918-1.348-8.185,0.732-9.534,4.649
			c-1.349,3.917,0.734,8.185,4.65,9.534c4.867,1.676,9.711,3.607,14.398,5.74c1.007,0.458,2.063,0.675,3.102,0.675
			c2.85,0,5.574-1.633,6.831-4.396C335.421,99.322,333.755,94.876,329.985,93.16z"/>
	</g>
</g>
<g>
	<g>
		<path d="M381.256,183.782c-12.05-21.422-29.91-39.502-51.65-52.286c-22.294-13.11-47.748-20.04-73.607-20.04
			c-4.142,0-7.5,3.358-7.5,7.5c0,4.142,3.358,7.501,7.501,7.501c23.188,0,46.012,6.214,66.004,17.97
			c19.458,11.442,35.427,27.594,46.18,46.709c2.054,3.651,1.514,8.455-1.313,11.681c-2.807,3.203-7.152,3.847-12.235,1.814
			c-3.849-1.54-8.211,0.332-9.749,4.178c-1.539,3.846,0.332,8.211,4.178,9.749c3.791,1.517,7.552,2.26,11.148,2.26
			c6.941,0,13.259-2.774,17.939-8.117C385.208,204.647,386.456,193.026,381.256,183.782z"/>
	</g>
</g>
<g>
</g>
<g>
</g>
<g>
</g>
<g>
</g>
<g>
</g>
<g>
</g>
<g>
</g>
<g>
</g>
<g>
</g>
<g>
</g>
<g>
</g>
<g>
</g>
<g>
</g>
<g>
</g>
<g>
</g>
</svg>
